<svg id="Layer_5" enable-background="new 0 0 64 64" height="512" viewBox="0 0 64 64" width="512" xmlns="http://www.w3.org/2000/svg"><path d="m58 17-5 8-5-8h3v-5c0-.55-.45-1-1-1h-11v-4h12c2.21 0 4 1.79 4 4v6z" fill="#ffeaa7"/><path d="m25 53v4h-12c-2.21 0-4-1.79-4-4v-6h-3l5-8 5 8h-3v5c0 .55.45 1 1 1z" fill="#ffeaa7"/><path d="m36 15.95v.05h-14c-1.1 0-2 .9-2 2v4c0 1.1.9 2 2 2h1v4h-1c-1.1 0-2 .9-2 2h-16c-1.1 0-2-.9-2-2v-18h34z" fill="#e6e9ed"/><path d="m62 42v18c0 1.1-.9 2-2 2h-30c-1.1 0-2-.9-2-2v-11.95-.05h14c1.1 0 2-.9 2-2v-4z" fill="#e6e9ed"/><path d="m16 15v10c0 .55-.45 1-1 1h-8c-.55 0-1-.45-1-1v-10c0-.55.45-1 1-1h8c.55 0 1 .45 1 1z" fill="#4fc1e9"/><path d="m32 52h12v6h-12z" fill="#4fc1e9"/><path d="m42 36c1.1 0 2-.9 2-2h16c1.1 0 2 .9 2 2v6h-18c0-1.1-.9-2-2-2h-1v-4z" fill="#ff826e"/><path d="m2 10v-6c0-1.1.9-2 2-2h30c1.1 0 2 .9 2 2v6z" fill="#ff826e"/><g fill="#fcd770"><path d="m20 22v-4c0-1.1.9-2 2-2h14 6c1.1 0 2 .9 2 2v4c0 1.1-.9 2-2 2h-1-18-1c-1.1 0-2-.9-2-2z"/><path d="m44 42v4c0 1.1-.9 2-2 2h-14-6c-1.1 0-2-.9-2-2v-4c0-1.1.9-2 2-2h1 18 1c1.1 0 2 .9 2 2z"/><path d="m44 30v4c0 1.1-.9 2-2 2h-1-18-1c-1.1 0-2-.9-2-2v-4c0-1.1.9-2 2-2h1 18 1c1.1 0 2 .9 2 2z"/></g><path d="m23 24h18v4h-18z" fill="#b4dd7f"/><path d="m23 36h18v4h-18z" fill="#b4dd7f"/><path d="m5 5h2v2h-2z"/><path d="m13 5h2v2h-2z"/><path d="m9 5h2v2h-2z"/><path d="m27 19h2v2h-2z"/><path d="m31 19h2v2h-2z"/><path d="m23 19h2v2h-2z"/><path d="m27 43h2v2h-2z"/><path d="m31 43h2v2h-2z"/><path d="m23 43h2v2h-2z"/><path d="m39 31h2v2h-2z"/><path d="m35 31h2v2h-2z"/><path d="m31 31h2v2h-2z"/><path d="m60 33h-15v-3c0-1.654-1.346-3-3-3v-2c1.654 0 3-1.346 3-3v-4c0-1.654-1.346-3-3-3h-5v-11c0-1.654-1.346-3-3-3h-30c-1.654 0-3 1.346-3 3v24c0 1.654 1.346 3 3 3h15v3c0 1.654 1.346 3 3 3v2c-1.654 0-3 1.346-3 3v4c0 1.654 1.346 3 3 3h5v11c0 1.654 1.346 3 3 3h30c1.654 0 3-1.346 3-3v-24c0-1.654-1.346-3-3-3zm1 3v5h-16.184c-.414-1.161-1.514-2-2.816-2v-2c1.302 0 2.402-.839 2.816-2h15.184c.551 0 1 .448 1 1zm-21-9h-16v-2h16zm3-9v4c0 .551-.449 1-1 1h-20c-.551 0-1-.449-1-1v-4c0-.551.449-1 1-1h20c.551 0 1 .449 1 1zm-39-15h30c.551 0 1 .449 1 1v5h-32v-5c0-.551.449-1 1-1zm-1 25v-17h32v4h-13c-1.654 0-3 1.346-3 3v4c0 1.654 1.346 3 3 3v2c-1.302 0-2.402.839-2.816 2h-15.184c-.551 0-1-.449-1-1zm18 6v-4c0-.551.449-1 1-1h20c.551 0 1 .449 1 1v4c0 .552-.449 1-1 1h-20c-.551 0-1-.448-1-1zm3 3h16v2h-16zm-3 9v-4c0-.552.449-1 1-1h20c.551 0 1 .448 1 1v4c0 .552-.449 1-1 1h-20c-.551 0-1-.448-1-1zm39 15h-30c-.551 0-1-.448-1-1v-11h13c1.654 0 3-1.346 3-3v-3h16v17c0 .552-.449 1-1 1z"/><path d="m21 56h2v2h-2z"/><path d="m14 48h3.804l-6.804-10.887-6.804 10.887h3.804v5c0 2.757 2.243 5 5 5h6v-2h-6c-1.654 0-3-1.346-3-3v-7h-2.196l3.196-5.113 3.196 5.113h-2.196v6c0 1.103.897 2 2 2h11v-2h-11z"/><path d="m41 6h2v2h-2z"/><path d="m50 16h-3.804l6.804 10.887 6.804-10.887h-3.804v-5c0-2.757-2.243-5-5-5h-6v2h6c1.654 0 3 1.346 3 3v7h2.196l-3.196 5.113-3.196-5.113h2.196v-6c0-1.103-.897-2-2-2h-11v2h11z"/><path d="m15 13h-8c-1.103 0-2 .897-2 2v10c0 1.103.897 2 2 2h8c1.103 0 2-.897 2-2v-10c0-1.103-.897-2-2-2zm-8 12v-10h8l.001 10z"/><path d="m31 59h14v-8h-14zm2-6h10v4h-10z"/><path d="m47 45h2v2h-2z"/><path d="m51 45h8v2h-8z"/><path d="m47 49h12v2h-12z"/><path d="m47 53h12v2h-12z"/><path d="m57 57h2v2h-2z"/><path d="m47 57h8v2h-8z"/></svg>