<svg id="Layer_5" enable-background="new 0 0 64 64" height="512" viewBox="0 0 64 64" width="512" xmlns="http://www.w3.org/2000/svg"><g><g><g><path d="m8 38h4v24h-4z" fill="#ffeaa7"/></g><g><path d="m12 2v18h-4v-8-10z" fill="#ffeaa7"/></g><g><path d="m8 12v8h-2c-1.1 0-2.1-.45-2.83-1.17-.72-.73-1.17-1.73-1.17-2.83 0-2.21 1.79-4 4-4z" fill="#aab2bd"/></g><g><path d="m12 2h4v18h-4z" fill="#aab2bd"/></g><g><path d="m12 38h4v24h-4z" fill="#aab2bd"/></g><g><path d="m62 14v48h-46v-24h10 12c2.21 0 4-1.79 4-4v-10c0-2.21-1.79-4-4-4h-12-10v-18h34v12z" fill="#e6e9ed"/></g><g><path d="m46 26h12v12h-12z" fill="#69d6f4"/></g><g><path d="m20 42h22v16h-22z" fill="#ff826e"/></g><g><path d="m36 6h4v4h-4z" fill="#aab2bd"/></g><g><path d="m28 6h4v4h-4z" fill="#aab2bd"/></g><g><path d="m20 6h4v4h-4z" fill="#aab2bd"/></g><g><path d="m62 14h-12v-12z" fill="#b4dd7f"/></g><g><path d="m38 20h-12-10-4-4-2c-1.1 0-2.1-.45-2.83-1.17-.72-.73-1.17-1.73-1.17-2.83v18c0 2.21 1.79 4 4 4h2 4 4 10 12c2.21 0 4-1.79 4-4v-10c0-2.21-1.79-4-4-4z" fill="#fcd770"/></g></g><g><path d="m50.414 1h-43.414v10h-1c-2.757 0-5 2.243-5 5v18c0 2.757 2.243 5 5 5h1v24h56v-49.414zm.586 3.414 8.586 8.586h-8.586zm-38 14.586v-16h2v16zm-2-16v16h-2v-16zm-5 10h1v6h-1c-1.654 0-3-1.346-3-3s1.346-3 3-3zm-3 21v-14.002c.836.628 1.875 1.002 3 1.002h32c1.654 0 3 1.346 3 3v10c0 1.654-1.346 3-3 3h-32c-1.654 0-3-1.346-3-3zm12 5v22h-2v-22zm-6 0h2v22h-2zm8 22v-22h21c2.757 0 5-2.243 5-5v-10c0-2.757-2.243-5-5-5h-21v-16h32v12h12v46z"/><path d="m25.168 22.445-3.168 4.752-3.168-4.752-1.664 1.11 3.63 5.445-3.63 5.445 1.664 1.11 3.168-4.752 3.168 4.752 1.664-1.11-3.63-5.445 3.63-5.445z"/><path d="m5 25h4v10h2v-10h4v-2h-10z"/><path d="m39 25v-2h-10v2h4v10h2v-10z"/><path d="m19 59h24v-18h-24zm2-16h20v14h-20z"/><path d="m57 41h2v2h-2z"/><path d="m45 41h10v2h-10z"/><path d="m45 45h14v2h-14z"/><path d="m45 49h14v2h-14z"/><path d="m45 53h14v2h-14z"/><path d="m45 57h2v2h-2z"/><path d="m49 57h10v2h-10z"/><path d="m19 11h6v-6h-6zm2-4h2v2h-2z"/><path d="m27 11h6v-6h-6zm2-4h2v2h-2z"/><path d="m35 11h6v-6h-6zm2-4h2v2h-2z"/><path d="m45 39h14v-14h-14zm2-12h10v10h-10z"/><path d="m45 21h14v2h-14z"/><path d="m45 17h14v2h-14z"/></g></g></svg>